<svg id="Livello_1" data-name="Livello 1" xmlns="http://www.w3.org/2000/svg" width="91.65" height="132.02" viewBox="0 0 91.65 132.02"><defs><style>.cls-1{fill:none;stroke:#1d1d1b;stroke-miterlimit:10;}.cls-2{fill:#1d1d1b;}</style></defs><title>certifications_1</title><path class="cls-1" d="M5.08.5h81.5a4.57,4.57,0,0,1,4.57,4.57v97.17a4.58,4.58,0,0,1-4.57,4.57H5.08A4.58,4.58,0,0,1,.5,102.24V5.07A4.57,4.57,0,0,1,5.08.5Z"/><path class="cls-2" d="M24.94,85.38l-1.43-4.46h.82l.75,2.57.27,1s.09-.35.25-.91l.73-2.62h.81l.69,2.58.23.86.27-.86.81-2.58h.77l-1.49,4.46h-.8l-.72-2.67L26.71,82l-.95,3.43Z"/><path class="cls-2" d="M31.58,85.38l-1.43-4.46H31l.75,2.57.27,1s.09-.35.25-.91L33,80.92h.81l.69,2.58.22.86L35,83.5l.82-2.58h.77l-1.5,4.46h-.79l-.73-2.67L33.35,82l-1,3.43Z"/><path class="cls-2" d="M38.22,85.38l-1.43-4.46h.82l.75,2.57.27,1s.09-.35.24-.91l.74-2.62h.8l.7,2.58.22.86.27-.86.82-2.58h.77L41.7,85.38h-.8l-.73-2.67L40,82l-1,3.43Z"/><rect class="cls-2" x="43.35" y="84.52" width="0.89" height="0.86"/><path class="cls-2" d="M45.59,85.38V81.51h-.68v-.59h.68v-.47a2.13,2.13,0,0,1,.08-.66,1.05,1.05,0,0,1,.41-.48,1.48,1.48,0,0,1,.8-.18,4.06,4.06,0,0,1,.73.08l-.11.65a2.71,2.71,0,0,0-.47,0,.67.67,0,0,0-.5.14.77.77,0,0,0-.15.55v.41h.9v.58h-.9v3.88Z"/><path class="cls-2" d="M47.68,84l.79-.09a1,1,0,0,0,.36.68,1.32,1.32,0,0,0,.83.24,1.25,1.25,0,0,0,.8-.21.63.63,0,0,0,.26-.5.46.46,0,0,0-.23-.41,3.77,3.77,0,0,0-.8-.25,8,8,0,0,1-1.18-.36A1.16,1.16,0,0,1,48,82.7a1,1,0,0,1-.18-.59,1,1,0,0,1,.15-.55,1.3,1.3,0,0,1,.38-.43,2.39,2.39,0,0,1,.5-.22,2.43,2.43,0,0,1,.68-.09,2.52,2.52,0,0,1,.95.16,1.29,1.29,0,0,1,.61.41,1.56,1.56,0,0,1,.27.69l-.78.1a.8.8,0,0,0-.29-.54,1.14,1.14,0,0,0-.7-.2,1.37,1.37,0,0,0-.77.17.5.5,0,0,0-.22.41.43.43,0,0,0,.09.26.63.63,0,0,0,.3.2l.68.2a10.41,10.41,0,0,1,1.16.34,1.22,1.22,0,0,1,.51.4,1,1,0,0,1,.19.65,1.27,1.27,0,0,1-.23.71,1.37,1.37,0,0,1-.66.51,2.33,2.33,0,0,1-1,.19,2.27,2.27,0,0,1-1.38-.36A1.69,1.69,0,0,1,47.68,84"/><path class="cls-2" d="M55.43,83.75l.77.11A1.86,1.86,0,0,1,55.56,85a2,2,0,0,1-1.28.44,2,2,0,0,1-1.52-.6,2.39,2.39,0,0,1-.58-1.71,3.13,3.13,0,0,1,.25-1.27,1.79,1.79,0,0,1,.75-.81,2.34,2.34,0,0,1,1.11-.27,1.94,1.94,0,0,1,1.23.37,1.65,1.65,0,0,1,.61,1.06l-.77.09a1.23,1.23,0,0,0-.38-.67,1,1,0,0,0-.67-.22,1.25,1.25,0,0,0-1,.4,2.5,2.5,0,0,0,0,2.6,1.19,1.19,0,0,0,.93.41,1.17,1.17,0,0,0,.78-.27,1.38,1.38,0,0,0,.38-.84"/><rect class="cls-2" x="57.04" y="84.52" width="0.89" height="0.86"/><path class="cls-2" d="M59.47,83.15a1.83,1.83,0,0,0,.39,1.28,1.33,1.33,0,0,0,2,0,1.9,1.9,0,0,0,.4-1.31,1.79,1.79,0,0,0-.4-1.25,1.26,1.26,0,0,0-1-.43,1.29,1.29,0,0,0-1,.42,1.88,1.88,0,0,0-.39,1.29m-.8,0a2.08,2.08,0,0,1,2.17-2.33,2.19,2.19,0,0,1,1.57.6,2.26,2.26,0,0,1,.6,1.67,2.84,2.84,0,0,1-.26,1.35,1.84,1.84,0,0,1-.79.77,2.32,2.32,0,0,1-1.12.27,2.12,2.12,0,0,1-1.57-.6,2.35,2.35,0,0,1-.6-1.73"/><path class="cls-2" d="M63.92,85.38V80.92h.7v.69a1.87,1.87,0,0,1,.5-.63.82.82,0,0,1,.5-.15,1.54,1.54,0,0,1,.82.24l-.28.69a1.22,1.22,0,0,0-.58-.15.79.79,0,0,0-.46.15.82.82,0,0,0-.28.41,2.75,2.75,0,0,0-.13.88v2.33Z"/><path class="cls-2" d="M67.32,83.07a1.88,1.88,0,0,0,.37,1.28,1.18,1.18,0,0,0,.92.4,1.22,1.22,0,0,0,.92-.39,1.87,1.87,0,0,0,.36-1.27,1.74,1.74,0,0,0-.38-1.23,1.19,1.19,0,0,0-1.81,0,1.76,1.76,0,0,0-.38,1.22m-.64,2.68.79.1a.66.66,0,0,0,.26.5,1.29,1.29,0,0,0,.8.22,1.38,1.38,0,0,0,.84-.22,1.06,1.06,0,0,0,.4-.58,5,5,0,0,0,.06-1,1.67,1.67,0,0,1-1.29.59,1.79,1.79,0,0,1-1.49-.66,2.5,2.5,0,0,1-.53-1.59A2.86,2.86,0,0,1,66.76,82a1.79,1.79,0,0,1,.7-.83,2,2,0,0,1,1.08-.3,1.66,1.66,0,0,1,1.35.66v-.56h.72v3.85a3.69,3.69,0,0,1-.22,1.48,1.64,1.64,0,0,1-.7.68,2.48,2.48,0,0,1-1.18.25,2.28,2.28,0,0,1-1.34-.35,1.2,1.2,0,0,1-.49-1.08"/><path class="cls-2" d="M47.48,7.74c-14.19,0-19.2,21.13-23.87,38.12-1.68-1.63-6.88-6.59-6.88-6.59a2.07,2.07,0,0,0-3,0,2,2,0,0,0,0,2.82l9.45,9a2.14,2.14,0,0,0,2.59.44A2.59,2.59,0,0,0,27,50c8.28-35.58,15.69-38.23,20.49-38.23a8.48,8.48,0,0,1,8.71,8.59c6,0,9.81,7.59,5,12.26,4,1.86,5.82,4.16,5.82,7.06a6.1,6.1,0,0,1-6.24,5.86c-3.68,0-5.55-2.26-8.41-2.26a2,2,0,0,0-2.09,2v7.18H44.78V45.26a2,2,0,0,0-1.94-2s-.46,0-.45,0l-7.24.86a2,2,0,0,0,.54,4,1.25,1.25,0,0,0,.36,0l4.58-.56v7.09a2.09,2.09,0,0,0,2,1.77h9.62a2.09,2.09,0,0,0,2.09-2V47.91a14,14,0,0,0,6.25,1.63c5.39,0,10.54-4.06,10.51-10a10,10,0,0,0-4.33-8.1A11,11,0,0,0,59.92,17,12.74,12.74,0,0,0,47.48,7.74"/><path class="cls-2" d="M47.48,7.74c-14.19,0-19.2,21.13-23.87,38.12-1.68-1.63-6.88-6.59-6.88-6.59a2.07,2.07,0,0,0-3,0,2,2,0,0,0,0,2.82l9.45,9a2.14,2.14,0,0,0,2.59.44A2.59,2.59,0,0,0,27,50c8.28-35.58,15.69-38.23,20.49-38.23a8.48,8.48,0,0,1,8.71,8.59c6,0,9.81,7.59,5,12.26,4,1.86,5.82,4.16,5.82,7.06a6.1,6.1,0,0,1-6.24,5.86c-3.68,0-5.55-2.26-8.41-2.26a2,2,0,0,0-2.09,2v7.18H44.78V45.26a2,2,0,0,0-1.94-2s-.46,0-.45,0l-7.24.86a2,2,0,0,0,.54,4,1.25,1.25,0,0,0,.36,0l4.58-.56v7.09a2.09,2.09,0,0,0,2,1.77h9.62a2.09,2.09,0,0,0,2.09-2V47.91a14,14,0,0,0,6.25,1.63c5.39,0,10.54-4.06,10.51-10a10,10,0,0,0-4.33-8.1A11,11,0,0,0,59.92,17,12.74,12.74,0,0,0,47.48,7.74"/><path class="cls-2" d="M41.42,64.3c0,1.67,1.95,2.68,5.15,4.14,2.54,1.14,4,2.35,4,3.31,0,1.57-1.77,2.13-3.42,2.13-2.55,0-4.06-1-4.89-3.16l-.07-.19H42c-.45,0-.81,0-1,.26a.87.87,0,0,0,0,.79l.57,2.25c.14.55.35.64,1.26.81a29.57,29.57,0,0,0,4.21.41c4.88,0,7.06-1.9,7.06-3.78,0-1.37-1.42-2.68-4.48-4.14l-1.39-.65c-2.09-1-3.35-1.52-3.35-2.53S46.12,62.3,48,62.3c2.44,0,3.1,1.31,3.39,2.44l.06.22h.23c.54,0,.89,0,1.09-.26a.54.54,0,0,0,.14-.47l-.2-2c-.05-.62-.55-.71-1.24-.84a17.52,17.52,0,0,0-3.28-.31c-4.23,0-6.76,1.19-6.76,3.17"/><path class="cls-2" d="M55.46,68.24c0,3.38,3.07,6.81,8.93,6.81a12,12,0,0,0,5.86-1.28l.34-.18L70,73l0,0a.43.43,0,0,0-.43-.21l-.29.09a9.72,9.72,0,0,1-4.26.8c-3,0-6.29-1.89-6.29-6.06,0-4,3.54-5.38,6.56-5.38,2.17,0,3.33.75,3.54,2.29l0,.25h.27c.26,0,1,0,1-.49V62c0-.56-.68-.65-1-.69l-.29,0a20.19,20.19,0,0,0-3.13-.18c-6,0-10.3,3-10.3,7.12"/><path class="cls-2" d="M33.37,61.29l-5.28.05-3.52-.06H24a.5.5,0,0,0-.54.52.52.52,0,0,0,.58.6c2.13,0,2.2.17,2.23,1v.49l0,2.08V70.4c0,.74,0,1.93-.08,2.88,0,.27,0,.54-1.91.54-.52,0-.84.1-.84.59a.46.46,0,0,0,.51.53h.12c.22,0,.82,0,3.75,0,3.13,0,3.76,0,4,0H32c.41,0,.77,0,.77-.53s-.48-.59-1.28-.59c-1.88,0-1.9-.27-1.91-.53,0-.88-.08-2.07-.08-2.89V68.79h1.57c2.43,0,2.7.06,3,1.85.09.39.42.43.69.43.57,0,.63-.29.63-.43l0-.67a13.82,13.82,0,0,1-.08-1.51V65.71c0-.41-.51-.41-.79-.41-.46,0-.57.28-.86,1.58-.13.49-1.13.78-2.74.78H29.5v-4c0-1.1.2-1.11.45-1.12.93,0,3.17-.11,3.85-.11a3.14,3.14,0,0,1,1.61.38,18.72,18.72,0,0,1,2.18,1.49c.36.28.57.44.87.44s.68,0,.68-.42a1.67,1.67,0,0,0-.21-.55c-.2-.41-.53-1.09-.94-2.14-.12-.33-.52-.33-1.26-.33Z"/><path class="cls-2" d="M64,12.47h.61a1,1,0,0,0,.58-.12.4.4,0,0,0,.16-.34.41.41,0,0,0-.15-.34,1.15,1.15,0,0,0-.63-.12H64Zm2.09,1.72h-.61A6.07,6.07,0,0,0,64.77,13a.79.79,0,0,0-.44-.13H64v1.3h-.49V11.13H64.6a3.35,3.35,0,0,1,.74.07.81.81,0,0,1,.57.76.85.85,0,0,1-.23.57.88.88,0,0,1-.65.28v0c.18,0,.42.3.72.77Zm-1.33.8a2.37,2.37,0,0,0,2.38-2.37,2.27,2.27,0,0,0-.7-1.68,2.32,2.32,0,0,0-1.68-.69,2.29,2.29,0,0,0-1.68.69,2.37,2.37,0,0,0,0,3.35,2.28,2.28,0,0,0,1.69.7m0-5.21a2.85,2.85,0,0,1,2.85,2.84,2.85,2.85,0,0,1-2.85,2.84,2.79,2.79,0,0,1-2-.83,2.74,2.74,0,0,1-.84-2,2.71,2.71,0,0,1,.84-2,2.79,2.79,0,0,1,2-.83"/><path class="cls-2" d="M64,12.47h.61a1,1,0,0,0,.58-.12.4.4,0,0,0,.16-.34.41.41,0,0,0-.15-.34,1.15,1.15,0,0,0-.63-.12H64Zm2.09,1.72h-.61A6.07,6.07,0,0,0,64.77,13a.79.79,0,0,0-.44-.13H64v1.3h-.49V11.13H64.6a3.35,3.35,0,0,1,.74.07.81.81,0,0,1,.57.76.85.85,0,0,1-.23.57.88.88,0,0,1-.65.28v0c.18,0,.42.3.72.77Zm-1.33.8a2.37,2.37,0,0,0,2.38-2.38,2.27,2.27,0,0,0-.7-1.67,2.32,2.32,0,0,0-1.68-.69,2.29,2.29,0,0,0-1.68.69,2.25,2.25,0,0,0-.7,1.67A2.37,2.37,0,0,0,64.79,15m0-5.21a2.73,2.73,0,0,1,2,.83,2.7,2.7,0,0,1,.84,2,2.85,2.85,0,0,1-2.85,2.85,2.79,2.79,0,0,1-2-.83,2.75,2.75,0,0,1-.84-2,2.7,2.7,0,0,1,.84-2,2.79,2.79,0,0,1,2-.83"/><polygon class="cls-2" points="22.58 95.3 19.57 95.3 19.57 97 22.18 97 22.18 97.66 19.57 97.66 19.57 100.16 18.84 100.16 18.84 94.64 22.58 94.64 22.58 95.3"/><polygon class="cls-2" points="22.58 95.3 19.57 95.3 19.57 97 22.18 97 22.18 97.66 19.57 97.66 19.57 100.16 18.84 100.16 18.84 94.64 22.58 94.64 22.58 95.3"/><path class="cls-2" d="M27.14,96.26a1,1,0,0,0-.38-.79,1.5,1.5,0,0,0-1-.27,1.83,1.83,0,0,0-.93.21.67.67,0,0,0-.35.62.6.6,0,0,0,.27.53,4,4,0,0,0,1.05.35,8.3,8.3,0,0,1,1.13.31,1.85,1.85,0,0,1,.74.49,1.21,1.21,0,0,1,.31.89,1.49,1.49,0,0,1-.57,1.19,2.24,2.24,0,0,1-1.48.47,2.53,2.53,0,0,1-1.75-.53,1.83,1.83,0,0,1-.62-1.34l.7-.06a1.16,1.16,0,0,0,.51,1,2.14,2.14,0,0,0,1.13.31,1.81,1.81,0,0,0,1-.25.8.8,0,0,0,.38-.69.7.7,0,0,0-.39-.66,5.57,5.57,0,0,0-1.33-.41A2.84,2.84,0,0,1,24.24,97a1.19,1.19,0,0,1-.42-1A1.38,1.38,0,0,1,24.34,95a2.18,2.18,0,0,1,1.43-.44,2.41,2.41,0,0,1,1.48.43,1.59,1.59,0,0,1,.6,1.23Z"/><path class="cls-2" d="M27.14,96.26a1,1,0,0,0-.38-.79,1.5,1.5,0,0,0-1-.27,1.83,1.83,0,0,0-.93.21.67.67,0,0,0-.35.62.6.6,0,0,0,.27.53,4,4,0,0,0,1.05.35,8.3,8.3,0,0,1,1.13.31,1.85,1.85,0,0,1,.74.49,1.21,1.21,0,0,1,.31.89,1.49,1.49,0,0,1-.57,1.19,2.24,2.24,0,0,1-1.48.47,2.53,2.53,0,0,1-1.75-.53,1.83,1.83,0,0,1-.62-1.34l.7-.06a1.16,1.16,0,0,0,.51,1,2.14,2.14,0,0,0,1.13.31,1.81,1.81,0,0,0,1-.25.8.8,0,0,0,.38-.69.7.7,0,0,0-.39-.66,5.57,5.57,0,0,0-1.33-.41A2.84,2.84,0,0,1,24.24,97a1.19,1.19,0,0,1-.42-1A1.38,1.38,0,0,1,24.34,95a2.18,2.18,0,0,1,1.43-.44,2.41,2.41,0,0,1,1.48.43,1.59,1.59,0,0,1,.6,1.23Z"/><path class="cls-2" d="M34,98.41a2.42,2.42,0,0,1-.85,1.39,2.67,2.67,0,0,1-3.43-.39,3.41,3.41,0,0,1-.62-2,2.79,2.79,0,0,1,.73-2.06,2.55,2.55,0,0,1,1.88-.76,2.35,2.35,0,0,1,1.39.41,2.25,2.25,0,0,1,.81,1.21l-.73.16a1.67,1.67,0,0,0-.55-.86,1.47,1.47,0,0,0-.92-.29,1.66,1.66,0,0,0-1.38.59,2.51,2.51,0,0,0-.47,1.59,2.54,2.54,0,0,0,.49,1.72,1.65,1.65,0,0,0,1.29.56,1.57,1.57,0,0,0,1.06-.35,1.9,1.9,0,0,0,.57-1.06Z"/><path class="cls-2" d="M34,98.41a2.42,2.42,0,0,1-.85,1.39,2.67,2.67,0,0,1-3.43-.39,3.41,3.41,0,0,1-.62-2,2.79,2.79,0,0,1,.73-2.06,2.55,2.55,0,0,1,1.88-.76,2.35,2.35,0,0,1,1.39.41,2.25,2.25,0,0,1,.81,1.21l-.73.16a1.67,1.67,0,0,0-.55-.86,1.47,1.47,0,0,0-.92-.29,1.66,1.66,0,0,0-1.38.59,2.51,2.51,0,0,0-.47,1.59,2.54,2.54,0,0,0,.49,1.72,1.65,1.65,0,0,0,1.29.56,1.57,1.57,0,0,0,1.06-.35,1.9,1.9,0,0,0,.57-1.06Z"/><path class="cls-2" d="M36.28,96h.3a.5.5,0,0,0,.29-.06.21.21,0,0,0,.08-.17.19.19,0,0,0-.08-.17.53.53,0,0,0-.31-.06h-.28Zm1,.86H37a3.19,3.19,0,0,0-.37-.58.34.34,0,0,0-.22-.07h-.15v.65H36V95.28h.53a1.66,1.66,0,0,1,.37,0,.38.38,0,0,1,.21.14.41.41,0,0,1,.08.24.39.39,0,0,1-.12.28.39.39,0,0,1-.32.14h0c.09,0,.21.15.35.38Zm-.67.4a1.19,1.19,0,0,0,.85-.35,1.17,1.17,0,0,0,0-1.67,1.19,1.19,0,0,0-.85-.35,1.17,1.17,0,0,0-.84.34,1.21,1.21,0,0,0-.35.85,1.14,1.14,0,0,0,.35.83,1.18,1.18,0,0,0,.84.35m0-2.61a1.42,1.42,0,0,1,1,2.43,1.34,1.34,0,0,1-1,.41,1.42,1.42,0,1,1,0-2.84"/><path class="cls-2" d="M36.28,96h.3a.5.5,0,0,0,.29-.06.21.21,0,0,0,.08-.17.19.19,0,0,0-.08-.17.53.53,0,0,0-.31-.06h-.28Zm1,.86H37a3.19,3.19,0,0,0-.37-.58.34.34,0,0,0-.22-.07h-.15v.65H36V95.28h.53a1.66,1.66,0,0,1,.37,0,.38.38,0,0,1,.21.14.41.41,0,0,1,.08.24.39.39,0,0,1-.12.28.39.39,0,0,1-.32.14h0c.09,0,.21.15.35.38Zm-.67.4a1.19,1.19,0,0,0,.85-.35,1.17,1.17,0,0,0,0-1.67,1.19,1.19,0,0,0-.85-.35,1.17,1.17,0,0,0-.84.34,1.21,1.21,0,0,0-.35.85,1.14,1.14,0,0,0,.35.83,1.18,1.18,0,0,0,.84.35m0-2.61a1.42,1.42,0,0,1,1,2.43,1.34,1.34,0,0,1-1,.41,1.42,1.42,0,1,1,0-2.84"/><path class="cls-2" d="M46.84,98.41A2.46,2.46,0,0,1,46,99.8a2.36,2.36,0,0,1-1.45.45,2.29,2.29,0,0,1-2-.84,3.42,3.42,0,0,1-.63-2,2.83,2.83,0,0,1,.73-2.06,2.58,2.58,0,0,1,1.89-.76,2.32,2.32,0,0,1,1.38.41,2.2,2.2,0,0,1,.81,1.21l-.72.16a1.74,1.74,0,0,0-.55-.86,1.49,1.49,0,0,0-.93-.29,1.69,1.69,0,0,0-1.38.59,2.51,2.51,0,0,0-.47,1.59,2.6,2.6,0,0,0,.49,1.72,1.65,1.65,0,0,0,1.29.56,1.57,1.57,0,0,0,1.06-.35,1.9,1.9,0,0,0,.57-1.06Z"/><path class="cls-2" d="M46.84,98.41A2.46,2.46,0,0,1,46,99.8a2.36,2.36,0,0,1-1.45.45,2.29,2.29,0,0,1-2-.84,3.42,3.42,0,0,1-.63-2,2.83,2.83,0,0,1,.73-2.06,2.58,2.58,0,0,1,1.89-.76,2.32,2.32,0,0,1,1.38.41,2.2,2.2,0,0,1,.81,1.21l-.72.16a1.74,1.74,0,0,0-.55-.86,1.49,1.49,0,0,0-.93-.29,1.69,1.69,0,0,0-1.38.59,2.51,2.51,0,0,0-.47,1.59,2.6,2.6,0,0,0,.49,1.72,1.65,1.65,0,0,0,1.29.56,1.57,1.57,0,0,0,1.06-.35,1.9,1.9,0,0,0,.57-1.06Z"/><path class="cls-2" d="M49.6,99.7a.9.9,0,0,0,.83-.53,3.87,3.87,0,0,0,.28-1.73,5.7,5.7,0,0,0-.12-1.32,1.44,1.44,0,0,0-.37-.71.91.91,0,0,0-1.45.3,4.05,4.05,0,0,0-.28,1.73,5.14,5.14,0,0,0,.13,1.31,1.37,1.37,0,0,0,.37.71.84.84,0,0,0,.61.24m0-5.09c1.21,0,1.81.94,1.81,2.83a3.76,3.76,0,0,1-.47,2.12,1.52,1.52,0,0,1-1.34.7q-1.8,0-1.8-2.82a3.92,3.92,0,0,1,.46-2.13,1.53,1.53,0,0,1,1.34-.7"/><path class="cls-2" d="M49.6,99.7a.9.9,0,0,0,.83-.53,3.87,3.87,0,0,0,.28-1.73,5.7,5.7,0,0,0-.12-1.32,1.44,1.44,0,0,0-.37-.71.91.91,0,0,0-1.45.3,4.05,4.05,0,0,0-.28,1.73,5.14,5.14,0,0,0,.13,1.31,1.37,1.37,0,0,0,.37.71.84.84,0,0,0,.61.24m0-5.09c1.21,0,1.81.94,1.81,2.83a3.76,3.76,0,0,1-.47,2.12,1.52,1.52,0,0,1-1.34.7q-1.8,0-1.8-2.82a3.92,3.92,0,0,1,.46-2.13,1.53,1.53,0,0,1,1.34-.7"/><path class="cls-2" d="M55,100.16h-.68V95.84a4.29,4.29,0,0,1-1.37.82V96a3.2,3.2,0,0,0,1.6-1.39H55Z"/><path class="cls-2" d="M55,100.16h-.68V95.84a4.29,4.29,0,0,1-1.37.82V96a3.2,3.2,0,0,0,1.6-1.39H55Z"/><path class="cls-2" d="M59.61,97.17a1.17,1.17,0,0,1,.78.5,1.55,1.55,0,0,1,.26.86,1.57,1.57,0,0,1-.55,1.24,1.92,1.92,0,0,1-1.32.48,1.76,1.76,0,0,1-1.21-.42A1.73,1.73,0,0,1,57,98.7l.69-.09a1.49,1.49,0,0,0,.37.82.93.93,0,0,0,.71.27,1.1,1.1,0,0,0,.81-.33,1.14,1.14,0,0,0,.33-.82,1,1,0,0,0-.3-.77,1.07,1.07,0,0,0-.79-.31,2,2,0,0,0-.48.08l.08-.6.43,0a1.58,1.58,0,0,0,.36-.13.89.89,0,0,0,.32-.29.82.82,0,0,0,.13-.48.77.77,0,0,0-.27-.63,1,1,0,0,0-1.3,0,1.21,1.21,0,0,0-.33.74l-.68-.12a1.72,1.72,0,0,1,2.81-1,1.33,1.33,0,0,1,.47,1,1.15,1.15,0,0,1-.76,1.11Z"/><path class="cls-2" d="M59.61,97.17a1.17,1.17,0,0,1,.78.5,1.55,1.55,0,0,1,.26.86,1.57,1.57,0,0,1-.55,1.24,1.92,1.92,0,0,1-1.32.48,1.76,1.76,0,0,1-1.21-.42A1.73,1.73,0,0,1,57,98.7l.69-.09a1.49,1.49,0,0,0,.37.82.93.93,0,0,0,.71.27,1.1,1.1,0,0,0,.81-.33,1.14,1.14,0,0,0,.33-.82,1,1,0,0,0-.3-.77,1.07,1.07,0,0,0-.79-.31,2,2,0,0,0-.48.08l.08-.6.43,0a1.58,1.58,0,0,0,.36-.13.89.89,0,0,0,.32-.29.82.82,0,0,0,.13-.48.77.77,0,0,0-.27-.63,1,1,0,0,0-1.3,0,1.21,1.21,0,0,0-.33.74l-.68-.12a1.72,1.72,0,0,1,2.81-1,1.33,1.33,0,0,1,.47,1,1.15,1.15,0,0,1-.76,1.11Z"/><path class="cls-2" d="M63.42,97.69a1,1,0,0,0,.8-.35,1.36,1.36,0,0,0,.29-.89,1.39,1.39,0,0,0-.3-.91.94.94,0,0,0-.77-.37,1,1,0,0,0-.8.39,1.39,1.39,0,0,0-.32.94,1.2,1.2,0,0,0,.31.86,1.06,1.06,0,0,0,.79.33m1.15-.13a1.55,1.55,0,0,1-.55.53,1.51,1.51,0,0,1-.76.19,1.56,1.56,0,0,1-1.16-.49,1.81,1.81,0,0,1-.48-1.31,1.89,1.89,0,0,1,.49-1.35,1.65,1.65,0,0,1,1.25-.52,1.78,1.78,0,0,1,1.34.6,3,3,0,0,1,.56,2.07,4,4,0,0,1-.51,2.24,1.68,1.68,0,0,1-1.47.73,1.65,1.65,0,0,1-1.05-.33,1.52,1.52,0,0,1-.51-1l.65,0c.11.58.41.87.92.87a1,1,0,0,0,1-.57,3.13,3.13,0,0,0,.34-1.57Z"/><path class="cls-2" d="M63.42,97.69a1,1,0,0,0,.8-.35,1.36,1.36,0,0,0,.29-.89,1.39,1.39,0,0,0-.3-.91.94.94,0,0,0-.77-.37,1,1,0,0,0-.8.39,1.39,1.39,0,0,0-.32.94,1.2,1.2,0,0,0,.31.86,1.06,1.06,0,0,0,.79.33m1.15-.13a1.55,1.55,0,0,1-.55.53,1.51,1.51,0,0,1-.76.19,1.56,1.56,0,0,1-1.16-.49,1.81,1.81,0,0,1-.48-1.31,1.89,1.89,0,0,1,.49-1.35,1.65,1.65,0,0,1,1.25-.52,1.78,1.78,0,0,1,1.34.6,3,3,0,0,1,.56,2.07,4,4,0,0,1-.51,2.24,1.68,1.68,0,0,1-1.47.73,1.65,1.65,0,0,1-1.05-.33,1.52,1.52,0,0,1-.51-1l.65,0c.11.58.41.87.92.87a1,1,0,0,0,1-.57,3.13,3.13,0,0,0,.34-1.57Z"/><path class="cls-2" d="M68.05,99.7a1.13,1.13,0,0,0,.8-.31,1,1,0,0,0,.32-.8,1.06,1.06,0,0,0-.32-.81,1.13,1.13,0,0,0-.81-.32,1.08,1.08,0,0,0-1.12,1.11,1.13,1.13,0,0,0,.32.81,1.1,1.1,0,0,0,.81.32m0-2.79a.86.86,0,0,0,.64-.25.78.78,0,0,0,.26-.6.81.81,0,0,0-.26-.63.89.89,0,0,0-.65-.26.87.87,0,0,0-.64.25.82.82,0,0,0-.25.6.79.79,0,0,0,.26.64,1,1,0,0,0,.64.25m.79.26a1.37,1.37,0,0,1,1,1.42,1.56,1.56,0,0,1-.5,1.19,1.86,1.86,0,0,1-1.32.47,1.8,1.8,0,0,1-1.31-.47,1.67,1.67,0,0,1-.52-1.22,1.52,1.52,0,0,1,.29-.91,1.17,1.17,0,0,1,.77-.48h0A1.07,1.07,0,0,1,66.45,96a1.32,1.32,0,0,1,.44-1,1.81,1.81,0,0,1,2.31,0,1.35,1.35,0,0,1,.45,1,1.09,1.09,0,0,1-.81,1.1Z"/><path class="cls-2" d="M68.05,99.7a1.13,1.13,0,0,0,.8-.31,1,1,0,0,0,.32-.8,1.06,1.06,0,0,0-.32-.81,1.13,1.13,0,0,0-.81-.32,1.08,1.08,0,0,0-1.12,1.11,1.13,1.13,0,0,0,.32.81,1.1,1.1,0,0,0,.81.32m0-2.79a.86.86,0,0,0,.64-.25.78.78,0,0,0,.26-.6.81.81,0,0,0-.26-.63.89.89,0,0,0-.65-.26.87.87,0,0,0-.64.25.82.82,0,0,0-.25.6.79.79,0,0,0,.26.64,1,1,0,0,0,.64.25m.79.26a1.37,1.37,0,0,1,1,1.42,1.56,1.56,0,0,1-.5,1.19,1.86,1.86,0,0,1-1.32.47,1.8,1.8,0,0,1-1.31-.47,1.67,1.67,0,0,1-.52-1.22,1.52,1.52,0,0,1,.29-.91,1.17,1.17,0,0,1,.77-.48h0A1.07,1.07,0,0,1,66.45,96a1.32,1.32,0,0,1,.44-1,1.81,1.81,0,0,1,2.31,0,1.35,1.35,0,0,1,.45,1,1.09,1.09,0,0,1-.81,1.1Z"/><path class="cls-2" d="M73.42,100.16h-.68V95.84a4.19,4.19,0,0,1-1.37.82V96A3.2,3.2,0,0,0,73,94.61h.45Z"/><path class="cls-2" d="M73.42,100.16h-.68V95.84a4.19,4.19,0,0,1-1.37.82V96A3.2,3.2,0,0,0,73,94.61h.45Z"/><polygon class="cls-2" points="28.2 117.29 26.37 117.29 26.37 122.16 25.63 122.16 25.63 117.29 23.81 117.29 23.81 116.63 28.2 116.63 28.2 117.29"/><polygon class="cls-2" points="28.2 117.29 26.37 117.29 26.37 122.16 25.63 122.16 25.63 117.29 23.81 117.29 23.81 116.63 28.2 116.63 28.2 117.29"/><path class="cls-2" d="M32.48,122.16h-.69v-2.53a1.1,1.1,0,0,0-.21-.73.77.77,0,0,0-.63-.25,1.1,1.1,0,0,0-.74.29,1.31,1.31,0,0,0-.33,1v2.19H29.2v-5.53h.68v2a1.54,1.54,0,0,1,1.21-.54,1.7,1.7,0,0,1,.74.16.91.91,0,0,1,.5.48,2.27,2.27,0,0,1,.15.91Z"/><path class="cls-2" d="M32.48,122.16h-.69v-2.53a1.1,1.1,0,0,0-.21-.73.77.77,0,0,0-.63-.25,1.1,1.1,0,0,0-.74.29,1.31,1.31,0,0,0-.33,1v2.19H29.2v-5.53h.68v2a1.54,1.54,0,0,1,1.21-.54,1.7,1.7,0,0,1,.74.16.91.91,0,0,1,.5.48,2.27,2.27,0,0,1,.15.91Z"/><path class="cls-2" d="M36.6,119.77a1.19,1.19,0,0,0-.38-.88,1.22,1.22,0,0,0-.74-.27,1.05,1.05,0,0,0-.79.32,1.32,1.32,0,0,0-.36.83Zm.7.56h-3a1.52,1.52,0,0,0,.38,1,1.14,1.14,0,0,0,.85.35,1.07,1.07,0,0,0,.65-.2,1.35,1.35,0,0,0,.41-.62l.69.08a1.73,1.73,0,0,1-.62,1,2.1,2.1,0,0,1-2.55-.22,2.24,2.24,0,0,1-.51-1.51,2.29,2.29,0,0,1,.5-1.53,1.68,1.68,0,0,1,1.39-.59,1.91,1.91,0,0,1,.84.19,1.71,1.71,0,0,1,.69.65,2.67,2.67,0,0,1,.29,1.42"/><path class="cls-2" d="M36.6,119.77a1.19,1.19,0,0,0-.38-.88,1.22,1.22,0,0,0-.74-.27,1.05,1.05,0,0,0-.79.32,1.32,1.32,0,0,0-.36.83Zm.7.56h-3a1.52,1.52,0,0,0,.38,1,1.14,1.14,0,0,0,.85.35,1.07,1.07,0,0,0,.65-.2,1.35,1.35,0,0,0,.41-.62l.69.08a1.73,1.73,0,0,1-.62,1,2.1,2.1,0,0,1-2.55-.22,2.24,2.24,0,0,1-.51-1.51,2.29,2.29,0,0,1,.5-1.53,1.68,1.68,0,0,1,1.39-.59,1.91,1.91,0,0,1,.84.19,1.71,1.71,0,0,1,.69.65,2.67,2.67,0,0,1,.29,1.42"/><path class="cls-2" d="M46.32,122.16h-.68v-2.53a2.33,2.33,0,0,0,0-.48.81.81,0,0,0-.19-.35.68.68,0,0,0-.49-.15,1,1,0,0,0-.7.28,1.24,1.24,0,0,0-.29.91v2.32h-.68v-2.6a1,1,0,0,0-.18-.71.69.69,0,0,0-.52-.2.92.92,0,0,0-.72.3,1.73,1.73,0,0,0-.29,1.13v2.08h-.68v-4h.62v.56h0a1.31,1.31,0,0,1,1.2-.65,1.46,1.46,0,0,1,.73.17,1,1,0,0,1,.41.53,1.41,1.41,0,0,1,1.24-.7,1.2,1.2,0,0,1,.93.33,1.44,1.44,0,0,1,.32,1Z"/><path class="cls-2" d="M46.32,122.16h-.68v-2.53a2.33,2.33,0,0,0,0-.48.81.81,0,0,0-.19-.35.68.68,0,0,0-.49-.15,1,1,0,0,0-.7.28,1.24,1.24,0,0,0-.29.91v2.32h-.68v-2.6a1,1,0,0,0-.18-.71.69.69,0,0,0-.52-.2.92.92,0,0,0-.72.3,1.73,1.73,0,0,0-.29,1.13v2.08h-.68v-4h.62v.56h0a1.31,1.31,0,0,1,1.2-.65,1.46,1.46,0,0,1,.73.17,1,1,0,0,1,.41.53,1.41,1.41,0,0,1,1.24-.7,1.2,1.2,0,0,1,.93.33,1.44,1.44,0,0,1,.32,1Z"/><path class="cls-2" d="M50.22,120.4v-.25a7.23,7.23,0,0,1-1.31.28c-.51.07-.77.28-.77.65a.57.57,0,0,0,.21.46,1,1,0,0,0,.59.18,1.39,1.39,0,0,0,.89-.3,1.27,1.27,0,0,0,.39-1m.9,1.76H50.4a1.77,1.77,0,0,1-.14-.5,2.2,2.2,0,0,1-1.48.59,1.53,1.53,0,0,1-1-.31,1.1,1.1,0,0,1-.37-.84,1,1,0,0,1,.36-.82,2.24,2.24,0,0,1,1.23-.43l.63-.1a3.29,3.29,0,0,0,.59-.13,3.66,3.66,0,0,0,0-.43.67.67,0,0,0-.11-.27.65.65,0,0,0-.3-.22,1.64,1.64,0,0,0-.55-.08,1.35,1.35,0,0,0-.69.16.89.89,0,0,0-.35.61l-.67-.09a1.32,1.32,0,0,1,.56-.92,2.18,2.18,0,0,1,1.25-.31,2.06,2.06,0,0,1,1.06.21.88.88,0,0,1,.42.52,3.25,3.25,0,0,1,.08.77v.91c0,.56,0,.93,0,1.12a1.43,1.43,0,0,0,.19.56"/><path class="cls-2" d="M50.22,120.4v-.25a7.23,7.23,0,0,1-1.31.28c-.51.07-.77.28-.77.65a.57.57,0,0,0,.21.46,1,1,0,0,0,.59.18,1.39,1.39,0,0,0,.89-.3,1.27,1.27,0,0,0,.39-1m.9,1.76H50.4a1.77,1.77,0,0,1-.14-.5,2.2,2.2,0,0,1-1.48.59,1.53,1.53,0,0,1-1-.31,1.1,1.1,0,0,1-.37-.84,1,1,0,0,1,.36-.82,2.24,2.24,0,0,1,1.23-.43l.63-.1a3.29,3.29,0,0,0,.59-.13,3.66,3.66,0,0,0,0-.43.67.67,0,0,0-.11-.27.65.65,0,0,0-.3-.22,1.64,1.64,0,0,0-.55-.08,1.35,1.35,0,0,0-.69.16.89.89,0,0,0-.35.61l-.67-.09a1.32,1.32,0,0,1,.56-.92,2.18,2.18,0,0,1,1.25-.31,2.06,2.06,0,0,1,1.06.21.88.88,0,0,1,.42.52,3.25,3.25,0,0,1,.08.77v.91c0,.56,0,.93,0,1.12a1.43,1.43,0,0,0,.19.56"/><path class="cls-2" d="M54.41,118.28l-.23.63a1,1,0,0,0-.5-.15.62.62,0,0,0-.57.34,1.85,1.85,0,0,0-.2,1v2.1h-.68v-4h.62v.6h0c.22-.46.5-.69.85-.69a1.35,1.35,0,0,1,.7.21"/><path class="cls-2" d="M54.41,118.28l-.23.63a1,1,0,0,0-.5-.15.62.62,0,0,0-.57.34,1.85,1.85,0,0,0-.2,1v2.1h-.68v-4h.62v.6h0c.22-.46.5-.69.85-.69a1.35,1.35,0,0,1,.7.21"/><polygon class="cls-2" points="58.46 122.16 57.62 122.16 56.29 120.11 55.81 120.57 55.81 122.16 55.12 122.16 55.12 116.63 55.81 116.63 55.81 119.78 57.42 118.16 58.3 118.16 56.77 119.64 58.46 122.16"/><polygon class="cls-2" points="58.46 122.16 57.62 122.16 56.29 120.11 55.81 120.57 55.81 122.16 55.12 122.16 55.12 116.63 55.81 116.63 55.81 119.78 57.42 118.16 58.3 118.16 56.77 119.64 58.46 122.16"/><path class="cls-2" d="M63.4,121.69a1,1,0,0,0,.89-.43,1.91,1.91,0,0,0,.3-1.13,1.69,1.69,0,0,0-.34-1.13,1.11,1.11,0,0,0-.85-.38,1.09,1.09,0,0,0-.85.38,1.76,1.76,0,0,0-.33,1.16,1.69,1.69,0,0,0,.33,1.14,1.09,1.09,0,0,0,.85.39m0-3.62a1.79,1.79,0,0,1,1.34.53,2,2,0,0,1,.54,1.49,2.09,2.09,0,0,1-.57,1.67,2,2,0,0,1-1.31.49,1.92,1.92,0,0,1-1.32-.5,2.54,2.54,0,0,1,0-3.16,1.85,1.85,0,0,1,1.34-.52"/><path class="cls-2" d="M63.4,121.69a1,1,0,0,0,.89-.43,1.91,1.91,0,0,0,.3-1.13,1.69,1.69,0,0,0-.34-1.13,1.11,1.11,0,0,0-.85-.38,1.09,1.09,0,0,0-.85.38,1.76,1.76,0,0,0-.33,1.16,1.69,1.69,0,0,0,.33,1.14,1.09,1.09,0,0,0,.85.39m0-3.62a1.79,1.79,0,0,1,1.34.53,2,2,0,0,1,.54,1.49,2.09,2.09,0,0,1-.57,1.67,2,2,0,0,1-1.31.49,1.92,1.92,0,0,1-1.32-.5,2.54,2.54,0,0,1,0-3.16,1.85,1.85,0,0,1,1.34-.52"/><path class="cls-2" d="M68.27,116.61l-.1.59a2.85,2.85,0,0,0-.4,0,.68.68,0,0,0-.4.11c-.11.07-.16.24-.16.51v.38H68v.52h-.77v3.48h-.68v-3.48h-.61v-.52h.61v-.43a2.29,2.29,0,0,1,0-.55.83.83,0,0,1,.3-.44,1.18,1.18,0,0,1,.75-.2,2.85,2.85,0,0,1,.64.07"/><path class="cls-2" d="M68.27,116.61l-.1.59a2.85,2.85,0,0,0-.4,0,.68.68,0,0,0-.4.11c-.11.07-.16.24-.16.51v.38H68v.52h-.77v3.48h-.68v-3.48h-.61v-.52h.61v-.43a2.29,2.29,0,0,1,0-.55.83.83,0,0,1,.3-.44,1.18,1.18,0,0,1,.75-.2,2.85,2.85,0,0,1,.64.07"/><path class="cls-2" d="M11.82,126.53l-.23.63a1,1,0,0,0-.5-.15.62.62,0,0,0-.57.34,1.83,1.83,0,0,0-.2,1v2.09H9.64v-4h.61v.6h0c.22-.46.5-.69.85-.69a1.32,1.32,0,0,1,.7.21"/><path class="cls-2" d="M11.82,126.53l-.23.63a1,1,0,0,0-.5-.15.62.62,0,0,0-.57.34,1.83,1.83,0,0,0-.2,1v2.09H9.64v-4h.61v.6h0c.22-.46.5-.69.85-.69a1.32,1.32,0,0,1,.7.21"/><path class="cls-2" d="M15.33,128a1.1,1.1,0,0,0-1.12-1.15,1.07,1.07,0,0,0-.79.32,1.3,1.3,0,0,0-.36.83Zm.7.56H13a1.58,1.58,0,0,0,.38,1,1.15,1.15,0,0,0,.85.35,1.1,1.1,0,0,0,.66-.2,1.34,1.34,0,0,0,.4-.62l.7.08a1.73,1.73,0,0,1-.62,1,2,2,0,0,1-1.14.33,1.84,1.84,0,0,1-1.41-.55,2.14,2.14,0,0,1-.51-1.51,2.33,2.33,0,0,1,.49-1.54,1.72,1.72,0,0,1,1.39-.59,2,2,0,0,1,.85.2,1.64,1.64,0,0,1,.69.65,2.78,2.78,0,0,1,.28,1.42"/><path class="cls-2" d="M15.33,128a1.1,1.1,0,0,0-1.12-1.15,1.07,1.07,0,0,0-.79.32,1.3,1.3,0,0,0-.36.83Zm.7.56H13a1.58,1.58,0,0,0,.38,1,1.15,1.15,0,0,0,.85.35,1,1,0,0,0,.65-.2,1.28,1.28,0,0,0,.41-.62l.7.08a1.73,1.73,0,0,1-.62,1,2,2,0,0,1-1.14.33,1.84,1.84,0,0,1-1.41-.55,2.14,2.14,0,0,1-.51-1.51,2.33,2.33,0,0,1,.49-1.54,1.72,1.72,0,0,1,1.39-.59,2,2,0,0,1,.85.2,1.64,1.64,0,0,1,.69.65,2.78,2.78,0,0,1,.28,1.42"/><path class="cls-2" d="M19.4,127.53a.7.7,0,0,0-.27-.49,1,1,0,0,0-.62-.17,1.28,1.28,0,0,0-.63.13.46.46,0,0,0-.24.39.38.38,0,0,0,.19.34,5.39,5.39,0,0,0,.76.24,9.84,9.84,0,0,1,.95.29,1.12,1.12,0,0,1,.49.35.94.94,0,0,1,.18.62,1.13,1.13,0,0,1-.44.9,1.73,1.73,0,0,1-1.17.37,2,2,0,0,1-1.2-.32,1.41,1.41,0,0,1-.52-1l.67-.1a.92.92,0,0,0,.31.62,1.13,1.13,0,0,0,.73.21,1.1,1.1,0,0,0,.68-.18.57.57,0,0,0,.24-.46.36.36,0,0,0-.11-.29.53.53,0,0,0-.27-.16c-.11,0-.36-.1-.74-.2a2.45,2.45,0,0,1-1.13-.49,1,1,0,0,1-.27-.7,1,1,0,0,1,.39-.82,1.66,1.66,0,0,1,1.08-.33,2,2,0,0,1,1.12.28,1.23,1.23,0,0,1,.48.84Z"/><path class="cls-2" d="M19.4,127.53a.7.7,0,0,0-.27-.49,1,1,0,0,0-.62-.17,1.28,1.28,0,0,0-.63.13.46.46,0,0,0-.24.39.38.38,0,0,0,.19.34,5.39,5.39,0,0,0,.76.24,9.84,9.84,0,0,1,.95.29,1.12,1.12,0,0,1,.49.35.94.94,0,0,1,.18.62,1.13,1.13,0,0,1-.44.9,1.73,1.73,0,0,1-1.17.37,2,2,0,0,1-1.2-.32,1.41,1.41,0,0,1-.52-1l.67-.1a.92.92,0,0,0,.31.62,1.13,1.13,0,0,0,.73.21,1.1,1.1,0,0,0,.68-.18.57.57,0,0,0,.24-.46.36.36,0,0,0-.11-.29.53.53,0,0,0-.27-.16c-.11,0-.36-.1-.74-.2a2.45,2.45,0,0,1-1.13-.49,1,1,0,0,1-.27-.7,1,1,0,0,1,.39-.82,1.66,1.66,0,0,1,1.08-.33,2,2,0,0,1,1.12.28,1.23,1.23,0,0,1,.48.84Z"/><path class="cls-2" d="M23,129.94a1,1,0,0,0,.79-.39,1.91,1.91,0,0,0,.31-1.18,1.85,1.85,0,0,0-.3-1.13.92.92,0,0,0-.77-.39.91.91,0,0,0-.79.44,1.9,1.9,0,0,0-.32,1.14,1.83,1.83,0,0,0,.3,1.13,1,1,0,0,0,.78.38m-1.05-3a1.26,1.26,0,0,1,1.14-.61,1.52,1.52,0,0,1,1.25.58,2.3,2.3,0,0,1,.46,1.48,2.25,2.25,0,0,1-.51,1.55,1.63,1.63,0,0,1-1.24.58,1.25,1.25,0,0,1-1-.51h0v1.95h-.68v-5.53H22v.51Z"/><path class="cls-2" d="M23,129.94a1,1,0,0,0,.79-.39,1.91,1.91,0,0,0,.31-1.18,1.85,1.85,0,0,0-.3-1.13.92.92,0,0,0-.77-.39.91.91,0,0,0-.79.44,1.9,1.9,0,0,0-.32,1.14,1.83,1.83,0,0,0,.3,1.13,1,1,0,0,0,.78.38m-1.05-3a1.26,1.26,0,0,1,1.14-.61,1.52,1.52,0,0,1,1.25.58,2.3,2.3,0,0,1,.46,1.48,2.25,2.25,0,0,1-.51,1.55,1.63,1.63,0,0,1-1.24.58,1.25,1.25,0,0,1-1-.51h0v1.95h-.68v-5.53H22v.51Z"/><path class="cls-2" d="M27.58,129.94a1,1,0,0,0,.89-.43,1.91,1.91,0,0,0,.3-1.13,1.62,1.62,0,0,0-.34-1.13,1.11,1.11,0,0,0-.85-.38,1.08,1.08,0,0,0-.85.38,1.75,1.75,0,0,0-.33,1.16,1.7,1.7,0,0,0,.33,1.14,1.09,1.09,0,0,0,.85.39m0-3.62a1.86,1.86,0,0,1,1.35.52,2,2,0,0,1,.53,1.5,2.1,2.1,0,0,1-.57,1.67,2,2,0,0,1-1.31.49,1.92,1.92,0,0,1-1.32-.5,2.54,2.54,0,0,1,0-3.16,1.85,1.85,0,0,1,1.34-.52"/><path class="cls-2" d="M27.58,129.94a1,1,0,0,0,.89-.43,1.91,1.91,0,0,0,.3-1.13,1.62,1.62,0,0,0-.34-1.13,1.11,1.11,0,0,0-.85-.38,1.08,1.08,0,0,0-.85.38,1.75,1.75,0,0,0-.33,1.16,1.7,1.7,0,0,0,.33,1.14,1.09,1.09,0,0,0,.85.39m0-3.62a1.86,1.86,0,0,1,1.35.52,2,2,0,0,1,.53,1.5,2.1,2.1,0,0,1-.57,1.67,2,2,0,0,1-1.31.49,1.92,1.92,0,0,1-1.32-.5,2.54,2.54,0,0,1,0-3.16,1.85,1.85,0,0,1,1.34-.52"/><path class="cls-2" d="M33.84,130.4h-.69V128a1.19,1.19,0,0,0-.22-.84.81.81,0,0,0-.61-.23,1.1,1.1,0,0,0-.57.15.82.82,0,0,0-.39.41,1.94,1.94,0,0,0-.11.76v2.18h-.68v-4h.61V127h0a1.43,1.43,0,0,1,.52-.49,1.72,1.72,0,0,1,.74-.17,1.67,1.67,0,0,1,.62.12,1,1,0,0,1,.49.34,1,1,0,0,1,.22.48,3.35,3.35,0,0,1,.05.7Z"/><path class="cls-2" d="M33.84,130.4h-.69V128a1.19,1.19,0,0,0-.22-.84.81.81,0,0,0-.61-.23,1.1,1.1,0,0,0-.57.15.82.82,0,0,0-.39.41,1.94,1.94,0,0,0-.11.76v2.18h-.68v-4h.61V127h0a1.43,1.43,0,0,1,.52-.49,1.72,1.72,0,0,1,.74-.17,1.67,1.67,0,0,1,.62.12,1,1,0,0,1,.49.34,1,1,0,0,1,.22.48,3.35,3.35,0,0,1,.05.7Z"/><path class="cls-2" d="M37.41,127.53a.69.69,0,0,0-.26-.49,1,1,0,0,0-.62-.17,1.28,1.28,0,0,0-.63.13.43.43,0,0,0-.24.39.36.36,0,0,0,.19.34,5.13,5.13,0,0,0,.75.24,8.3,8.3,0,0,1,.95.29,1.16,1.16,0,0,1,.5.35,1,1,0,0,1,.17.62,1.12,1.12,0,0,1-.43.9,1.77,1.77,0,0,1-1.18.37,2,2,0,0,1-1.19-.32,1.42,1.42,0,0,1-.53-1l.68-.1a.85.85,0,0,0,.31.62,1.1,1.1,0,0,0,.72.21,1.13,1.13,0,0,0,.69-.18.57.57,0,0,0,.24-.46.4.4,0,0,0-.11-.29.57.57,0,0,0-.27-.16c-.11,0-.36-.1-.75-.2a2.4,2.4,0,0,1-1.12-.49,1,1,0,0,1,.12-1.52,1.66,1.66,0,0,1,1.08-.33,2,2,0,0,1,1.12.28,1.23,1.23,0,0,1,.48.84Z"/><path class="cls-2" d="M37.41,127.53a.69.69,0,0,0-.26-.49,1,1,0,0,0-.62-.17,1.28,1.28,0,0,0-.63.13.43.43,0,0,0-.24.39.36.36,0,0,0,.19.34,5.13,5.13,0,0,0,.75.24,8.3,8.3,0,0,1,.95.29,1.16,1.16,0,0,1,.5.35,1,1,0,0,1,.17.62,1.12,1.12,0,0,1-.43.9,1.77,1.77,0,0,1-1.18.37,2,2,0,0,1-1.19-.32,1.42,1.42,0,0,1-.53-1l.68-.1a.85.85,0,0,0,.31.62,1.1,1.1,0,0,0,.72.21,1.13,1.13,0,0,0,.69-.18.57.57,0,0,0,.24-.46.4.4,0,0,0-.11-.29.57.57,0,0,0-.27-.16c-.11,0-.36-.1-.75-.2a2.4,2.4,0,0,1-1.12-.49,1,1,0,0,1,.12-1.52,1.66,1.66,0,0,1,1.08-.33,2,2,0,0,1,1.12.28,1.23,1.23,0,0,1,.48.84Z"/><path class="cls-2" d="M39.35,130.4H40v-4h-.68Zm0-4.75H40v-.77h-.68Z"/><path class="cls-2" d="M39.35,130.4H40v-4h-.68Zm0-4.75H40v-.77h-.68Z"/><path class="cls-2" d="M43.07,129.94a.92.92,0,0,0,.78-.4,1.88,1.88,0,0,0,.31-1.14,2,2,0,0,0-.28-1.12,1,1,0,0,0-1.58,0,1.8,1.8,0,0,0-.3,1.07,2.21,2.21,0,0,0,.13.91,1.24,1.24,0,0,0,.37.46.86.86,0,0,0,.57.2m-1-3.09a1.24,1.24,0,0,1,1.08-.53,1.57,1.57,0,0,1,1.25.56,2.2,2.2,0,0,1,.46,1.46,2.23,2.23,0,0,1-.52,1.6,1.61,1.61,0,0,1-1.22.56,1.25,1.25,0,0,1-1.1-.6h0v.5h-.64v-5.52h.68v2Z"/><path class="cls-2" d="M43.07,129.94a.92.92,0,0,0,.78-.4,1.88,1.88,0,0,0,.31-1.14,2,2,0,0,0-.28-1.12,1,1,0,0,0-1.58,0,1.8,1.8,0,0,0-.3,1.07,2.21,2.21,0,0,0,.13.91,1.24,1.24,0,0,0,.37.46.86.86,0,0,0,.57.2m-1-3.09a1.24,1.24,0,0,1,1.08-.53,1.57,1.57,0,0,1,1.25.56,2.2,2.2,0,0,1,.46,1.46,2.23,2.23,0,0,1-.52,1.6,1.61,1.61,0,0,1-1.22.56,1.25,1.25,0,0,1-1.1-.6h0v.5h-.64v-5.52h.68v2Z"/><rect class="cls-2" x="45.99" y="124.88" width="0.68" height="5.52"/><rect class="cls-2" x="45.99" y="124.88" width="0.68" height="5.52"/><path class="cls-2" d="M50.8,128a1.19,1.19,0,0,0-.38-.88,1.17,1.17,0,0,0-.74-.27,1.05,1.05,0,0,0-.79.32,1.3,1.3,0,0,0-.36.83Zm.7.56h-3a1.52,1.52,0,0,0,.38,1,1.12,1.12,0,0,0,.84.35,1.08,1.08,0,0,0,.66-.2,1.35,1.35,0,0,0,.41-.62l.69.08a1.73,1.73,0,0,1-.62,1,2,2,0,0,1-1.14.33,1.81,1.81,0,0,1-1.4-.55,2.19,2.19,0,0,1-.52-1.51,2.34,2.34,0,0,1,.5-1.54,1.71,1.71,0,0,1,1.39-.59,1.92,1.92,0,0,1,.84.2,1.64,1.64,0,0,1,.69.65,2.67,2.67,0,0,1,.29,1.42"/><path class="cls-2" d="M50.8,128a1.19,1.19,0,0,0-.38-.88,1.17,1.17,0,0,0-.74-.27,1.05,1.05,0,0,0-.79.32,1.3,1.3,0,0,0-.36.83Zm.7.56h-3a1.52,1.52,0,0,0,.38,1,1.12,1.12,0,0,0,.84.35,1.08,1.08,0,0,0,.66-.2,1.35,1.35,0,0,0,.41-.62l.69.08a1.73,1.73,0,0,1-.62,1,2,2,0,0,1-1.14.33,1.81,1.81,0,0,1-1.4-.55,2.19,2.19,0,0,1-.52-1.51,2.34,2.34,0,0,1,.5-1.54,1.71,1.71,0,0,1,1.39-.59,1.92,1.92,0,0,1,.84.2,1.64,1.64,0,0,1,.69.65,2.67,2.67,0,0,1,.29,1.42"/><path class="cls-2" d="M57,124.85l-.1.6a1.87,1.87,0,0,0-.4,0,.83.83,0,0,0-.41.1c-.1.07-.15.24-.15.52v.38h.77v.52h-.77v3.47h-.69v-3.47h-.6v-.52h.6V126a2.23,2.23,0,0,1,.06-.54.86.86,0,0,1,.3-.45,1.18,1.18,0,0,1,.75-.19,3.55,3.55,0,0,1,.64.06"/><path class="cls-2" d="M57,124.85l-.1.6a1.87,1.87,0,0,0-.4,0,.83.83,0,0,0-.41.1c-.1.07-.15.24-.15.52v.38h.77v.52h-.77v3.47h-.69v-3.47h-.6v-.52h.6V126a2.23,2.23,0,0,1,.06-.54.86.86,0,0,1,.3-.45,1.18,1.18,0,0,1,.75-.19,3.55,3.55,0,0,1,.64.06"/><path class="cls-2" d="M59.17,129.94a1,1,0,0,0,.88-.43,1.92,1.92,0,0,0,.31-1.13,1.68,1.68,0,0,0-.34-1.13,1.11,1.11,0,0,0-.85-.38,1.08,1.08,0,0,0-.85.38,1.69,1.69,0,0,0-.34,1.16,1.65,1.65,0,0,0,.34,1.14,1.09,1.09,0,0,0,.85.39m0-3.62a1.82,1.82,0,0,1,1.34.52,2,2,0,0,1,.54,1.5,2.07,2.07,0,0,1-.58,1.67,2,2,0,0,1-1.3.49,1.92,1.92,0,0,1-1.32-.5,2,2,0,0,1-.56-1.59,2.06,2.06,0,0,1,.54-1.57,1.83,1.83,0,0,1,1.34-.52"/><path class="cls-2" d="M59.17,129.94a1,1,0,0,0,.88-.43,1.92,1.92,0,0,0,.31-1.13,1.68,1.68,0,0,0-.34-1.13,1.11,1.11,0,0,0-.85-.38,1.08,1.08,0,0,0-.85.38,1.69,1.69,0,0,0-.34,1.16,1.65,1.65,0,0,0,.34,1.14,1.09,1.09,0,0,0,.85.39m0-3.62a1.82,1.82,0,0,1,1.34.52,2,2,0,0,1,.54,1.5,2.07,2.07,0,0,1-.58,1.67,2,2,0,0,1-1.3.49,1.92,1.92,0,0,1-1.32-.5,2,2,0,0,1-.56-1.59,2.06,2.06,0,0,1,.54-1.57,1.83,1.83,0,0,1,1.34-.52"/><path class="cls-2" d="M64.31,126.53l-.24.63a.93.93,0,0,0-.49-.15.63.63,0,0,0-.58.34,1.93,1.93,0,0,0-.2,1v2.09h-.68v-4h.62v.6h0c.22-.46.5-.69.85-.69a1.38,1.38,0,0,1,.7.21"/><path class="cls-2" d="M64.31,126.53l-.24.63a.93.93,0,0,0-.49-.15.63.63,0,0,0-.58.34,1.93,1.93,0,0,0-.2,1v2.09h-.68v-4h.62v.6h0c.22-.46.5-.69.85-.69a1.38,1.38,0,0,1,.7.21"/><path class="cls-2" d="M67.82,128a1.19,1.19,0,0,0-.38-.88,1.17,1.17,0,0,0-.74-.27,1.05,1.05,0,0,0-.79.32,1.3,1.3,0,0,0-.36.83Zm.7.56h-3a1.52,1.52,0,0,0,.38,1,1.12,1.12,0,0,0,.84.35,1.08,1.08,0,0,0,.66-.2,1.35,1.35,0,0,0,.41-.62l.7.08a1.8,1.8,0,0,1-.63,1,2,2,0,0,1-1.14.33,1.81,1.81,0,0,1-1.4-.55,2.14,2.14,0,0,1-.52-1.51,2.39,2.39,0,0,1,.49-1.54,1.74,1.74,0,0,1,1.4-.59,1.92,1.92,0,0,1,.84.2,1.64,1.64,0,0,1,.69.65,2.77,2.77,0,0,1,.29,1.42"/><path class="cls-2" d="M67.82,128a1.19,1.19,0,0,0-.38-.88,1.17,1.17,0,0,0-.74-.27,1.05,1.05,0,0,0-.79.32,1.3,1.3,0,0,0-.36.83Zm.7.56h-3a1.52,1.52,0,0,0,.38,1,1.12,1.12,0,0,0,.84.35,1.08,1.08,0,0,0,.66-.2,1.35,1.35,0,0,0,.41-.62l.7.08a1.8,1.8,0,0,1-.63,1,2,2,0,0,1-1.14.33,1.81,1.81,0,0,1-1.4-.55,2.14,2.14,0,0,1-.52-1.51,2.39,2.39,0,0,1,.49-1.54,1.74,1.74,0,0,1,1.4-.59,1.92,1.92,0,0,1,.84.2,1.64,1.64,0,0,1,.69.65,2.77,2.77,0,0,1,.29,1.42"/><path class="cls-2" d="M71.88,127.53a.69.69,0,0,0-.26-.49,1,1,0,0,0-.62-.17,1.28,1.28,0,0,0-.63.13.43.43,0,0,0-.24.39.36.36,0,0,0,.19.34,5,5,0,0,0,.76.24,9.84,9.84,0,0,1,1,.29,1.19,1.19,0,0,1,.49.35,1,1,0,0,1,.17.62,1.12,1.12,0,0,1-.43.9,1.77,1.77,0,0,1-1.18.37,2,2,0,0,1-1.19-.32,1.45,1.45,0,0,1-.53-1l.68-.1a.88.88,0,0,0,.31.62,1.37,1.37,0,0,0,1.41,0,.57.57,0,0,0,.24-.46.4.4,0,0,0-.11-.29.57.57,0,0,0-.27-.16c-.11,0-.36-.1-.74-.2a2.4,2.4,0,0,1-1.13-.49,1,1,0,0,1-.28-.7,1,1,0,0,1,.4-.82,1.66,1.66,0,0,1,1.08-.33,2,2,0,0,1,1.12.28,1.23,1.23,0,0,1,.48.84Z"/><path class="cls-2" d="M71.88,127.53a.69.69,0,0,0-.26-.49,1,1,0,0,0-.62-.17,1.28,1.28,0,0,0-.63.13.43.43,0,0,0-.24.39.36.36,0,0,0,.19.34,5,5,0,0,0,.76.24,9.84,9.84,0,0,1,1,.29,1.19,1.19,0,0,1,.49.35,1,1,0,0,1,.17.62,1.12,1.12,0,0,1-.43.9,1.77,1.77,0,0,1-1.18.37,2,2,0,0,1-1.19-.32,1.45,1.45,0,0,1-.53-1l.68-.1a.88.88,0,0,0,.31.62,1.37,1.37,0,0,0,1.41,0,.57.57,0,0,0,.24-.46.4.4,0,0,0-.11-.29.57.57,0,0,0-.27-.16c-.11,0-.36-.1-.74-.2a2.4,2.4,0,0,1-1.13-.49,1,1,0,0,1-.28-.7,1,1,0,0,1,.4-.82,1.66,1.66,0,0,1,1.08-.33,2,2,0,0,1,1.12.28,1.23,1.23,0,0,1,.48.84Z"/><path class="cls-2" d="M75.38,130.4a2.67,2.67,0,0,1-.51.06,1.07,1.07,0,0,1-.64-.16.56.56,0,0,1-.25-.4,3,3,0,0,1,0-.67v-2.3h-.5v-.53h.5v-1l.68-.41v1.4h.68v.53h-.68v2.34a1,1,0,0,0,.06.42c0,.09.15.13.32.13a1.53,1.53,0,0,0,.3,0Z"/><path class="cls-2" d="M75.38,130.4a2.67,2.67,0,0,1-.51.06,1.07,1.07,0,0,1-.64-.16.56.56,0,0,1-.25-.4,3,3,0,0,1,0-.67v-2.3h-.5v-.53h.5v-1l.68-.41v1.4h.68v.53h-.68v2.34a1,1,0,0,0,.06.42c0,.09.15.13.32.13a1.53,1.53,0,0,0,.3,0Z"/><path class="cls-2" d="M78.44,126.53l-.24.63a.93.93,0,0,0-.49-.15.62.62,0,0,0-.58.34,1.93,1.93,0,0,0-.2,1v2.09h-.68v-4h.62v.6h0c.21-.46.5-.69.85-.69a1.38,1.38,0,0,1,.7.21"/><path class="cls-2" d="M78.44,126.53l-.24.63a.93.93,0,0,0-.49-.15.62.62,0,0,0-.58.34,1.93,1.93,0,0,0-.2,1v2.09h-.68v-4h.62v.6h0c.21-.46.5-.69.85-.69a1.38,1.38,0,0,1,.7.21"/><path class="cls-2" d="M82.45,126.4l-1.53,4.07v0a4.53,4.53,0,0,1-.51,1.1,1,1,0,0,1-.84.42,1.59,1.59,0,0,1-.44-.07l-.07-.64a1.32,1.32,0,0,0,.39.06.58.58,0,0,0,.52-.21,3.53,3.53,0,0,0,.33-.75l-1.53-4h.74l.94,2.63a4.93,4.93,0,0,1,.18.62h0a5.45,5.45,0,0,1,.24-.84l.88-2.41Z"/><path class="cls-2" d="M82.45,126.4l-1.53,4.07v0a4.53,4.53,0,0,1-.51,1.1,1,1,0,0,1-.84.42,1.59,1.59,0,0,1-.44-.07l-.07-.64a1.32,1.32,0,0,0,.39.06.58.58,0,0,0,.52-.21,3.53,3.53,0,0,0,.33-.75l-1.53-4h.74l.94,2.63a4.93,4.93,0,0,1,.18.62h0a5.45,5.45,0,0,1,.24-.84l.88-2.41Z"/></svg>