<svg id="Livello_1" data-name="Livello 1" xmlns="http://www.w3.org/2000/svg" width="130" height="66.48" viewBox="0 0 130 66.48"><defs><style>.cls-1{fill:#1d1d1b;}</style></defs><title>certifications_carb</title><path class="cls-1" d="M21.62,18.72,30,21.24a15.29,15.29,0,0,1-2.65,5.86,11.48,11.48,0,0,1-4.48,3.55A16.77,16.77,0,0,1,16,31.85a19.8,19.8,0,0,1-8.2-1.46,12.94,12.94,0,0,1-5.5-5.13A17.42,17.42,0,0,1,0,15.85Q0,8.22,4.07,4.1T15.57,0q5.82,0,9.15,2.35a13.83,13.83,0,0,1,4.94,7.23l-8.4,1.87a7.22,7.22,0,0,0-.92-2.06,5.52,5.52,0,0,0-2-1.68,5.63,5.63,0,0,0-2.58-.59,5.6,5.6,0,0,0-5,2.6q-1.3,1.93-1.3,6.07,0,5.12,1.55,7a5.36,5.36,0,0,0,4.37,1.9,5.32,5.32,0,0,0,4.13-1.54,9.46,9.46,0,0,0,2-4.45"/><path class="cls-1" d="M51.54,19.58,48.14,8.51,44.78,19.58Zm2,6.66H42.71l-1.5,5.08H31.49L43.07.52H53.45L65,31.32h-10Z"/><path class="cls-1" d="M77.73,13h4a14.51,14.51,0,0,0,2.52-.43,2.46,2.46,0,0,0,1.55-1,2.86,2.86,0,0,0,.6-1.79,2.84,2.84,0,0,0-1-2.29,5.72,5.72,0,0,0-3.55-.8H77.73ZM68.17,31.32V.52H84a23.2,23.2,0,0,1,6.75.76,7.2,7.2,0,0,1,3.76,2.81,8.5,8.5,0,0,1,1.43,5,8.59,8.59,0,0,1-1.1,4.43,8.56,8.56,0,0,1-3,3,11.58,11.58,0,0,1-3.34,1.22A9.48,9.48,0,0,1,91,18.87a9.44,9.44,0,0,1,1.52,1.61,12.36,12.36,0,0,1,1.34,1.92l4.61,8.92H87.71l-5.08-9.41a7.08,7.08,0,0,0-1.73-2.37,4,4,0,0,0-2.33-.72h-.84v12.5Z"/><path class="cls-1" d="M111.13,24.7H116a5.32,5.32,0,0,0,3.46-.87,2.91,2.91,0,0,0,1-2.34,2.71,2.71,0,0,0-1-2.19,5.56,5.56,0,0,0-3.5-.83h-4.84Zm0-12.1h4.14a4.76,4.76,0,0,0,3.1-.76,2.8,2.8,0,0,0,.87-2.22,2.64,2.64,0,0,0-.87-2.1,4.69,4.69,0,0,0-3-.76h-4.21ZM101.53.53h17.82q4.45,0,6.84,2.2a7.13,7.13,0,0,1,2.38,5.46,6.92,6.92,0,0,1-1.7,4.69,7.62,7.62,0,0,1-3.32,2.06,8.57,8.57,0,0,1,4.88,2.74A7.48,7.48,0,0,1,130,22.56a8.41,8.41,0,0,1-1.11,4.31,8.26,8.26,0,0,1-3,3,9.89,9.89,0,0,1-3.61,1,42,42,0,0,1-4.27.42H101.53Z"/><path class="cls-1" d="M6.27,36.5H3v5.06H6.27a2.54,2.54,0,1,0,0-5.06m.13,6.27H3V48H1.66V35.28H6.4a3.75,3.75,0,1,1,0,7.49"/><polygon class="cls-1" points="22.65 48.01 22.65 42.2 16.61 42.2 16.61 48.01 15.25 48.01 15.25 35.28 16.61 35.28 16.61 40.98 22.65 40.98 22.65 35.28 24.01 35.28 24.01 48.01 22.65 48.01"/><path class="cls-1" d="M33.66,37.23,31.27,44H36ZM37.43,48l-1-2.88H30.86l-1,2.88H28.39l4.68-12.73h1.15L38.88,48Z"/><path class="cls-1" d="M46.53,48.12a5.58,5.58,0,0,1-4.36-1.68l.93-.93a4.4,4.4,0,0,0,3.47,1.39c1.86,0,3-.88,3-2.36A2,2,0,0,0,49,43a2.7,2.7,0,0,0-1.66-.61l-1.48-.23a4.62,4.62,0,0,1-2.34-1,3,3,0,0,1-1-2.38c0-2.16,1.56-3.59,4.08-3.59a5.13,5.13,0,0,1,3.79,1.39l-.88.87a4,4,0,0,0-3-1.09c-1.69,0-2.68.95-2.68,2.36a1.85,1.85,0,0,0,.57,1.47,3.74,3.74,0,0,0,1.72.7l1.39.21a4.17,4.17,0,0,1,2.33.89,3.18,3.18,0,0,1,1.07,2.52c0,2.24-1.75,3.62-4.4,3.62"/><polygon class="cls-1" points="56.1 48.01 56.1 35.28 64 35.28 64 36.5 57.46 36.5 57.46 40.98 63.04 40.98 63.04 42.2 57.46 42.2 57.46 46.79 64 46.79 64 48.01 56.1 48.01"/><rect class="cls-1" x="75.93" y="35.28" width="1.36" height="12.73"/><rect class="cls-1" x="82.47" y="35.28" width="1.36" height="12.73"/><path class="cls-1" d="M24.88,50.6c-4,0-6.85,3.15-6.85,7.49s2.88,7.49,6.85,7.49,6.86-3.15,6.86-7.49-2.88-7.49-6.86-7.49m0,15.42c-4.22,0-7.3-3.33-7.3-7.93s3.08-7.93,7.3-7.93,7.3,3.33,7.3,7.93S29.11,66,24.88,66"/><path class="cls-1" d="M9,66c-4.22,0-7.3-3.33-7.3-7.93S4.77,50.16,9,50.16a7.39,7.39,0,0,1,5.11,1.93l-.31.31A7,7,0,0,0,9,50.6c-4,0-6.85,3.15-6.85,7.49S5,65.58,9,65.58a6.83,6.83,0,0,0,5.23-2.27l.34.28A7.27,7.27,0,0,1,9,66"/><polygon class="cls-1" points="36.87 65.8 36.42 65.8 36.42 49.57 43.85 62.13 51.39 49.58 51.39 65.8 50.95 65.8 50.95 51.18 43.85 62.99 36.87 51.19 36.87 65.8"/><path class="cls-1" d="M57.48,58.6h4.33c1.7,0,3.72-.73,3.72-4.17A3.62,3.62,0,0,0,62,50.61H57.48Zm0,7.2H57V50.17H62a4.07,4.07,0,0,1,4,4.26c0,4-2.6,4.61-4.16,4.61H57.48Z"/><polygon class="cls-1" points="77.54 66.02 69.47 66.02 69.47 50.38 69.91 50.38 69.91 65.58 77.54 65.58 77.54 66.02"/><rect class="cls-1" x="81.17" y="50.39" width="0.44" height="15.41"/><polygon class="cls-1" points="97.95 65.89 91.62 50.97 85.57 65.88 85.16 65.72 91.61 49.81 98.36 65.72 97.95 65.89"/><rect class="cls-1" x="87.63" y="59.99" width="8.18" height="0.44"/><polygon class="cls-1" points="112.78 66.48 101.49 51.07 101.49 65.8 101.05 65.8 101.05 49.71 112.33 65.12 112.33 50.39 112.78 50.39 112.78 66.48"/><rect class="cls-1" x="115.92" y="50.17" width="11.79" height="0.44"/><rect class="cls-1" x="121.59" y="50.39" width="0.44" height="15.41"/><path class="cls-1" d="M124,37.31c-.29.3-.63.66-1.06,1a10.12,10.12,0,0,1-1.54,1.16,9.43,9.43,0,0,1-2.11.89,11.52,11.52,0,0,1-2.54.38,10.91,10.91,0,0,1-2.72-.26l-1.59-.32v.09c0,.07,0,.15,0,.24a2.18,2.18,0,0,0,.19.6,2,2,0,0,0,.2.3,1.42,1.42,0,0,0,.26.29,6.65,6.65,0,0,0,1.26.83l.61.33-.66-.22a7.51,7.51,0,0,1-1.45-.64,3.07,3.07,0,0,1-.35-.28,1.62,1.62,0,0,1-.31-.33,3,3,0,0,1-.37-.71c0-.11-.06-.23-.09-.32s0-.17,0-.23,0-.07,0-.1l-.39-.08c-.9-.19-1.81-.36-2.7-.5l-1.71-.24v.06c0,.11,0,.2.06.33a3.85,3.85,0,0,0,.12.45,5.2,5.2,0,0,0,.54,1.1,5.57,5.57,0,0,0,.4.59c.15.2.3.39.47.58a16,16,0,0,0,2,1.92c.6.48,1,.77,1,.77s-.45-.24-1.11-.65a15.16,15.16,0,0,1-2.27-1.7c-.19-.17-.38-.36-.56-.55s-.34-.38-.5-.57a5.5,5.5,0,0,1-.43-.59c-.13-.19-.23-.4-.33-.58s-.16-.36-.22-.54a3.08,3.08,0,0,1-.12-.45l-.06-.27c-.41,0-.8,0-1.19-.07s-.81,0-1.19.07a14,14,0,0,0-1.55.24c0,.06,0,.14,0,.23a6.73,6.73,0,0,0,.23.86,8.72,8.72,0,0,0,1.27,2.45,5.6,5.6,0,0,0,.48.59,5.1,5.1,0,0,0,.52.52c.17.17.36.31.53.45s.36.24.52.34.32.18.46.26.27.12.37.17l.33.14-.34-.1a3.15,3.15,0,0,1-.39-.14c-.15-.06-.32-.12-.5-.21s-.37-.18-.56-.3-.4-.25-.59-.4a6.66,6.66,0,0,1-.59-.49,7.5,7.5,0,0,1-.57-.56c-.17-.2-.35-.4-.5-.61s-.31-.43-.45-.64a9.75,9.75,0,0,1-.65-1.21,8.88,8.88,0,0,1-.36-.94c0-.1,0-.17-.06-.23-.6.14-1.14.32-1.62.48s-1,.35-1.36.51l-.21.09h0s0,.1,0,.26,0,.18,0,.29a1.35,1.35,0,0,0,.09.33,1.61,1.61,0,0,0,.14.38c.07.13.13.28.21.42l.31.4a4.51,4.51,0,0,0,.37.39,3.44,3.44,0,0,0,.41.35c.15.11.28.23.42.32.3.19.56.37.81.51l.81.46-.86-.36c-.26-.11-.55-.26-.87-.42-.16-.07-.31-.18-.48-.27a3.55,3.55,0,0,1-.47-.32c-.15-.12-.31-.23-.45-.36l-.4-.41q-.16-.22-.3-.45a2.32,2.32,0,0,1-.23-.44,2.18,2.18,0,0,1-.15-.39c0-.11-.06-.2-.08-.28a.76.76,0,0,1,0-.11l-.3.14,0,0,.28-.18h0a.28.28,0,0,1,0-.06h0v-.45s0-.1,0-.15l.06-.34c0-.11.08-.22.12-.34a1.74,1.74,0,0,1,.16-.34c.07-.1.12-.22.2-.32a5.29,5.29,0,0,1,.46-.56,3.57,3.57,0,0,1,.46-.43,4.38,4.38,0,0,1,.34-.28l.13-.1-.11.12c-.07.08-.18.19-.29.33a5.66,5.66,0,0,0-.37.49,4.3,4.3,0,0,0-.34.59,2.56,2.56,0,0,0-.12.32,1,1,0,0,0-.09.32,1.6,1.6,0,0,0,0,.29,2,2,0,0,0,0,.24v.11s0,.08,0,.11a.22.22,0,0,1,0,.08l.19-.1A16.32,16.32,0,0,1,101,39.09v-.26c0-.07,0-.14,0-.24s0-.21.07-.33a1.12,1.12,0,0,1,.11-.34,1.48,1.48,0,0,1,.17-.33l.22-.3.27-.24a1.78,1.78,0,0,1,.27-.21c.17-.14.34-.24.48-.34l.47-.32-.39.42c-.12.12-.26.26-.4.42s-.14.16-.2.25l-.18.26c0,.09-.09.18-.13.28a2.68,2.68,0,0,0-.07.27.54.54,0,0,0,0,.25v.22c0,.07,0,.16,0,.22s0,.07,0,.1a13.31,13.31,0,0,1,1.67-.34,12.36,12.36,0,0,1,1.25-.11c.42,0,.87,0,1.3,0v0a1.92,1.92,0,0,1,0-.32c0-.1.07-.22.11-.34s.12-.23.19-.34a1.31,1.31,0,0,1,.25-.33,1.14,1.14,0,0,1,.3-.28c.11-.09.22-.16.33-.24a1.54,1.54,0,0,1,.34-.17l.32-.15a2,2,0,0,1,.3-.09l.63-.17-.58.28c-.08,0-.18.08-.27.14s-.18.13-.27.2a1.93,1.93,0,0,0-.28.22l-.24.26a.9.9,0,0,0-.2.28,1,1,0,0,0-.15.29l-.09.29,0,.26a1.21,1.21,0,0,0,0,.2s0,.07,0,.11c.65.06,1.31.14,2,.26.9.15,1.82.34,2.73.54l.3.06a.84.84,0,0,1,.06-.14,1.79,1.79,0,0,1,.12-.24,1.06,1.06,0,0,1,.16-.23.87.87,0,0,1,.2-.23,1.5,1.5,0,0,1,.24-.2l.26-.16a2.18,2.18,0,0,1,.27-.11,1.91,1.91,0,0,1,.47-.12l.47-.07-.43.19a1.85,1.85,0,0,0-.4.23.7.7,0,0,0-.2.15l-.18.18a2.26,2.26,0,0,0-.13.2.67.67,0,0,0-.1.21.52.52,0,0,0-.07.21,1.49,1.49,0,0,0,0,.18.38.38,0,0,0,0,.1q.85.2,1.71.36a11.23,11.23,0,0,0,2.59.31,10.52,10.52,0,0,0,2.43-.27,8.48,8.48,0,0,0,2-.77,9.92,9.92,0,0,0,1.57-1c.44-.35.8-.68,1.1-.95.59-.56.91-.89.91-.89l0,0s-.29.36-.84,1m-5-1.39c-5.47,0-7-2.57-12.58-2.57-3.54,0-10,1.84-10.74,7.36,0,0-2.08.23-7.7,3.67L88.44,47s2.75-4.19,6.88-4.86c0,0,.61,6.16,10.26,6.16,12.07,0,21-6.9,21.68-15.29a11.61,11.61,0,0,1-8.24,3"/></svg>