<svg id="Livello_1" data-name="Livello 1" xmlns="http://www.w3.org/2000/svg" width="77.67" height="117.9" viewBox="0 0 77.67 117.9"><title>certifications_v100</title><path d="M77,96.38H0V93H77ZM38.35.31a87.1,87.1,0,0,1-7.76,20.21c-2.4,4.65-4.72,9.33-6.74,14.21a22.6,22.6,0,0,0-1.46,12.61c1.37,7.89,7.15,14.11,13.93,15,7.18,1,13.9-3.21,16.94-10.65a22,22,0,0,0-.32-17.33c-2.12-5.1-4.61-10-7.08-14.86A86,86,0,0,1,40,5.32C39.45,3.6,39,1.86,38.47,0A1.79,1.79,0,0,0,38.35.31ZM58.47,65.66a31.94,31.94,0,0,0-7.91,6.77c-.56.64-1,1.37-1.48,2a16.71,16.71,0,0,0-1.24,2,33.28,33.28,0,0,0-1.71,3.49C45.36,82,45,83.24,45,83.24L47.62,81c.8-.66,1.9-1.27,3-2a14.25,14.25,0,0,1,1.78-1c.63-.29,1.22-.64,1.88-.88a33.78,33.78,0,0,1,7.81-2c2.45-.25,4.48-.39,5.73-.54a19.74,19.74,0,0,0,6.5-2.19,6.14,6.14,0,0,0,3.34-4c.29-1.64-.85-3.36-3-4.53a13.94,13.94,0,0,0-8.8-1.18A23.56,23.56,0,0,0,58.47,65.66ZM16.08,79.76a35.37,35.37,0,0,1,7.09.18,20.86,20.86,0,0,1,6.28,1.79c.79.4,1.41.81,1.88,1.07l.72.44-.32-.77c-.22-.48-.51-1.23-1-2.1a22.2,22.2,0,0,0-5-5.87c-4.57-4-11.17-6.38-14-6.57C5.94,67.52,1.48,70.8,2,74.11S6.39,79.66,10.89,80A48,48,0,0,0,16.08,79.76ZM14.87,60.31a19.18,19.18,0,0,1,3.56,1c.9.4,1.5.7,1.5.7l-.2-.4c-.14-.26-.34-.66-.62-1.1a17.4,17.4,0,0,0-2.65-3.15,19.11,19.11,0,0,0-7-4.36c-3-.72-5.72.57-5.84,2.44S5.4,59,7.89,59.56C9.14,59.85,12.16,59.79,14.87,60.31Z"/><path d="M18.16,117.65l-5.06-15.5h2.16l2.42,7.64c.66,2.09,1.24,4,1.65,5.79h.05c.43-1.79,1.08-3.75,1.77-5.77l2.62-7.66h2.14l-5.54,15.5Z"/><path d="M31.27,104.59h-.05l-2.6,1.4-.39-1.54,3.27-1.74h1.72v14.94H31.27Z"/><path d="M47.69,110c0,5.08-1.89,7.88-5.2,7.88-2.92,0-4.9-2.73-4.94-7.67s2.16-7.78,5.2-7.78S47.69,105.26,47.69,110Zm-8.12.23c0,3.88,1.2,6.09,3,6.09,2.07,0,3.06-2.41,3.06-6.23s-1-6.09-3-6.09C40.86,104,39.57,106.18,39.57,110.25Z"/><path d="M59,110c0,5.08-1.89,7.88-5.2,7.88-2.92,0-4.9-2.73-4.94-7.67s2.16-7.78,5.19-7.78S59,105.26,59,110Zm-8.12.23c0,3.88,1.2,6.09,3,6.09,2.07,0,3-2.41,3-6.23S56.06,104,54,104C52.2,104,50.91,106.18,50.91,110.25Z"/></svg>